<?xml version="1.0" encoding="UTF-8"?>
<svg xmlns="http://www.w3.org/2000/svg" xmlns:xlink="http://www.w3.org/1999/xlink" width="107px" height="65px" viewBox="0 0 107 65" version="1.1">
<g id="surface1">
<path style=" stroke:none;fill-rule:nonzero;fill:rgb(100%,100%,100%);fill-opacity:1;" d="M 44.605469 30.554688 C 42.445312 29.324219 39.460938 29.441406 37.046875 29.125 C 35.316406 28.894531 34.433594 27.015625 32.714844 26.808594 C 31.859375 26.707031 31 26.632812 30.144531 26.585938 C 20.445312 26.027344 11.042969 28.738281 6.410156 30.355469 C 6.117188 30.457031 5.933594 30.035156 6.210938 29.890625 C 10.398438 27.714844 18.917969 24.121094 29.15625 24.359375 C 30.035156 24.375 30.929688 24.425781 31.832031 24.507812 C 33.402344 24.648438 35.003906 24.882812 36.636719 25.234375 C 37.015625 25.320312 37.382812 25.417969 37.75 25.53125 C 40.523438 26.421875 42.78125 28.285156 44.613281 30.558594 Z M 44.605469 30.554688 "/>
<path style=" stroke:none;fill-rule:nonzero;fill:rgb(100%,100%,100%);fill-opacity:1;" d="M 38.917969 23.914062 C 38.917969 23.914062 43.871094 11.535156 32.675781 0 C 32.675781 0 26.425781 15.324219 38.917969 23.914062 Z M 38.917969 23.914062 "/>
<path style=" stroke:none;fill-rule:nonzero;fill:rgb(100%,100%,100%);fill-opacity:1;" d="M 14.941406 8.757812 C 14.941406 8.757812 29.097656 10.378906 34.9375 23.027344 C 34.9375 23.027344 22.972656 21.894531 14.941406 8.757812 Z M 14.941406 8.757812 "/>
<path style=" stroke:none;fill-rule:nonzero;fill:rgb(100%,100%,100%);fill-opacity:1;" d="M 50.65625 46.035156 L 50.65625 64.992188 L 43.066406 64.992188 L 43.066406 46.226562 C 43.066406 45.078125 42.875 44.105469 42.492188 43.300781 C 42.113281 42.5 41.609375 41.816406 40.96875 41.265625 C 40.339844 40.714844 39.597656 40.308594 38.753906 40.054688 C 37.910156 39.800781 37.027344 39.675781 36.101562 39.675781 C 35.171875 39.675781 34.289062 39.800781 33.4375 40.054688 C 32.59375 40.308594 31.855469 40.714844 31.222656 41.265625 C 30.589844 41.816406 30.089844 42.5 29.699219 43.300781 C 29.320312 44.105469 29.132812 45.085938 29.132812 46.226562 L 29.132812 64.992188 L 21.535156 64.992188 L 21.535156 46.226562 C 21.535156 45.078125 21.347656 44.105469 20.96875 43.300781 C 20.589844 42.5 20.085938 41.816406 19.445312 41.265625 C 18.8125 40.714844 18.074219 40.308594 17.230469 40.054688 C 16.382812 39.800781 15.503906 39.675781 14.570312 39.675781 C 13.636719 39.675781 12.757812 39.800781 11.914062 40.054688 C 11.070312 40.308594 10.332031 40.714844 9.699219 41.265625 C 9.066406 41.816406 8.554688 42.5 8.175781 43.300781 C 7.796875 44.105469 7.601562 45.085938 7.601562 46.226562 L 7.601562 64.992188 L 0.0117188 64.992188 L 0.0117188 46.035156 C 0.0117188 45.894531 0.0117188 45.757812 0.0273438 45.617188 C 0.0664062 44.347656 0.332031 42.996094 0.804688 41.582031 C 1.328125 40.011719 2.183594 38.554688 3.371094 37.222656 C 4.550781 35.890625 6.054688 34.785156 7.890625 33.917969 C 9.691406 33.066406 11.867188 32.628906 14.417969 32.617188 L 14.5625 32.617188 C 17.175781 32.617188 19.324219 33.054688 20.992188 33.917969 C 21.03125 33.941406 21.070312 33.957031 21.109375 33.980469 C 22.722656 34.839844 24.011719 35.917969 24.972656 37.222656 C 24.992188 37.246094 25.003906 37.257812 25.023438 37.285156 C 25.128906 37.421875 25.230469 37.566406 25.328125 37.714844 C 25.390625 37.621094 25.453125 37.539062 25.519531 37.441406 C 25.570312 37.367188 25.625 37.296875 25.679688 37.222656 C 26.664062 35.890625 27.988281 34.785156 29.65625 33.917969 C 31.324219 33.046875 33.46875 32.617188 36.085938 32.617188 C 38.707031 32.617188 40.929688 33.054688 42.765625 33.917969 C 44.601562 34.789062 46.105469 35.890625 47.285156 37.222656 C 48.464844 38.554688 49.320312 40.011719 49.855469 41.582031 C 50.382812 43.148438 50.644531 44.636719 50.644531 46.035156 Z M 50.65625 46.035156 "/>
<path style=" stroke:none;fill-rule:nonzero;fill:rgb(100%,100%,100%);fill-opacity:1;" d="M 54.070312 23.96875 C 54.070312 22.828125 54.46875 21.839844 55.277344 21.011719 C 56.078125 20.183594 57.070312 19.769531 58.25 19.769531 C 59.429688 19.769531 60.425781 20.183594 61.226562 21.011719 C 62.027344 21.839844 62.429688 22.828125 62.429688 23.96875 C 62.429688 25.113281 62.027344 26.222656 61.226562 27.027344 C 60.425781 27.832031 59.429688 28.238281 58.25 28.238281 C 57.070312 28.238281 56.078125 27.835938 55.277344 27.027344 C 54.476562 26.222656 54.070312 25.203125 54.070312 23.96875 Z M 54.453125 33.191406 L 62.042969 33.191406 L 62.042969 65 L 54.453125 65 Z M 54.453125 33.191406 "/>
<path style=" stroke:none;fill-rule:nonzero;fill:rgb(100%,100%,100%);fill-opacity:1;" d="M 65.84375 20.464844 L 73.433594 20.464844 L 73.433594 52.722656 L 87.742188 33.191406 L 96.789062 33.191406 L 85.078125 49.097656 L 96.535156 65 L 87.546875 65 L 80.585938 55.269531 L 73.433594 65 L 65.84375 65 Z M 65.84375 20.464844 "/>
<path style=" stroke:none;fill-rule:nonzero;fill:rgb(100%,100%,100%);fill-opacity:1;" d="M 98.632812 23.96875 C 98.632812 22.828125 99.03125 21.839844 99.835938 21.011719 C 100.636719 20.183594 101.628906 19.769531 102.808594 19.769531 C 103.992188 19.769531 104.984375 20.183594 105.785156 21.011719 C 106.585938 21.839844 106.988281 22.828125 106.988281 23.96875 C 106.988281 25.113281 106.585938 26.222656 105.785156 27.027344 C 104.984375 27.832031 103.992188 28.238281 102.808594 28.238281 C 101.628906 28.238281 100.636719 27.835938 99.835938 27.027344 C 99.035156 26.222656 98.632812 25.203125 98.632812 23.96875 Z M 99.011719 33.191406 L 106.605469 33.191406 L 106.605469 65 L 99.011719 65 Z M 99.011719 33.191406 "/>
</g>
</svg>
